<?xml version="1.0" encoding="UTF-8" standalone="no"?><svg xmlns="http://www.w3.org/2000/svg" xmlns:xlink="http://www.w3.org/1999/xlink" contentScriptType="application/ecmascript" contentStyleType="text/css" height="628px" preserveAspectRatio="none" style="width:582px;height:628px;" version="1.1" viewBox="0 0 582 628" width="582px" zoomAndPan="magnify"><defs><filter height="300%" id="fojm9aue79gpb" width="300%" x="-1" y="-1"><feGaussianBlur result="blurOut" stdDeviation="2.0"/><feColorMatrix in="blurOut" result="blurOut2" type="matrix" values="0 0 0 0 0 0 0 0 0 0 0 0 0 0 0 0 0 0 .4 0"/><feOffset dx="4.0" dy="4.0" in="blurOut2" result="blurOut3"/><feBlend in="SourceGraphic" in2="blurOut3" mode="normal"/></filter></defs><g><rect fill="#FEFECE" filter="url(#fojm9aue79gpb)" height="49.25" style="stroke: #A80036; stroke-width: 1.5;" width="84" x="299" y="7"/><text fill="#000000" font-family="sans-serif" font-size="12" lengthAdjust="spacingAndGlyphs" textLength="31" x="325.5" y="20.1387">Song</text><line style="stroke: #A80036; stroke-width: 1.5;" x1="300" x2="382" y1="24.9688" y2="24.9688"/><text fill="#000000" font-family="sans-serif" font-size="10" lengthAdjust="spacingAndGlyphs" textLength="32" x="305" y="38.251">name</text><text fill="#000000" font-family="sans-serif" font-size="10" lengthAdjust="spacingAndGlyphs" textLength="72" x="305" y="49.8916">tempo (bpm)</text><rect fill="#FEFECE" filter="url(#fojm9aue79gpb)" height="84.1719" style="stroke: #A80036; stroke-width: 1.5;" width="154" x="7" y="243"/><text fill="#000000" font-family="sans-serif" font-size="12" lengthAdjust="spacingAndGlyphs" textLength="63" x="52.5" y="256.1387">Instrument</text><line style="stroke: #A80036; stroke-width: 1.5;" x1="8" x2="160" y1="260.9688" y2="260.9688"/><text fill="#000000" font-family="sans-serif" font-size="10" lengthAdjust="spacingAndGlyphs" textLength="32" x="13" y="274.251">name</text><text fill="#000000" font-family="sans-serif" font-size="10" lengthAdjust="spacingAndGlyphs" textLength="69" x="13" y="285.8916">channel (int)</text><text fill="#000000" font-family="sans-serif" font-size="10" lengthAdjust="spacingAndGlyphs" textLength="142" x="13" y="297.5322">min/base/max octave (int)</text><text fill="#000000" font-family="sans-serif" font-size="10" lengthAdjust="spacingAndGlyphs" textLength="109" x="13" y="309.1729">default velocity (int)</text><text fill="#000000" font-family="sans-serif" font-size="10" lengthAdjust="spacingAndGlyphs" textLength="71" x="13" y="320.8135">muted (bool)</text><rect fill="#FEFECE" filter="url(#fojm9aue79gpb)" height="37.6094" style="stroke: #A80036; stroke-width: 1.5;" width="56" x="56" y="416"/><text fill="#000000" font-family="sans-serif" font-size="12" lengthAdjust="spacingAndGlyphs" textLength="42" x="63" y="429.1387">Device</text><line style="stroke: #A80036; stroke-width: 1.5;" x1="57" x2="111" y1="433.9688" y2="433.9688"/><text fill="#000000" font-family="sans-serif" font-size="10" lengthAdjust="spacingAndGlyphs" textLength="32" x="62" y="447.251">name</text><rect fill="#FEFECE" filter="url(#fojm9aue79gpb)" height="49.25" style="stroke: #A80036; stroke-width: 1.5;" width="83" x="230.5" y="122"/><text fill="#000000" font-family="sans-serif" font-size="12" lengthAdjust="spacingAndGlyphs" textLength="33" x="255.5" y="135.1387">Track</text><line style="stroke: #A80036; stroke-width: 1.5;" x1="231.5" x2="312.5" y1="139.9688" y2="139.9688"/><text fill="#000000" font-family="sans-serif" font-size="10" lengthAdjust="spacingAndGlyphs" textLength="32" x="236.5" y="153.251">name</text><text fill="#000000" font-family="sans-serif" font-size="10" lengthAdjust="spacingAndGlyphs" textLength="71" x="236.5" y="164.8916">muted (bool)</text><rect fill="#FEFECE" filter="url(#fojm9aue79gpb)" height="60.8906" style="stroke: #A80036; stroke-width: 1.5;" width="124" x="349" y="116"/><text fill="#000000" font-family="sans-serif" font-size="12" lengthAdjust="spacingAndGlyphs" textLength="38" x="392" y="129.1387">Scene</text><line style="stroke: #A80036; stroke-width: 1.5;" x1="350" x2="472" y1="133.9688" y2="133.9688"/><text fill="#000000" font-family="sans-serif" font-size="10" lengthAdjust="spacingAndGlyphs" textLength="32" x="355" y="147.251">name</text><text fill="#000000" font-family="sans-serif" font-size="10" lengthAdjust="spacingAndGlyphs" textLength="112" x="355" y="158.8916">auto_advance (bool)</text><text fill="#000000" font-family="sans-serif" font-size="10" lengthAdjust="spacingAndGlyphs" textLength="58" x="355" y="170.5322">rate (float)</text><rect fill="#FEFECE" filter="url(#fojm9aue79gpb)" height="84.1719" style="stroke: #A80036; stroke-width: 1.5;" width="102" x="327" y="393"/><text fill="#000000" font-family="sans-serif" font-size="12" lengthAdjust="spacingAndGlyphs" textLength="41" x="357.5" y="406.1387">Pattern</text><line style="stroke: #A80036; stroke-width: 1.5;" x1="328" x2="428" y1="410.9688" y2="410.9688"/><text fill="#000000" font-family="sans-serif" font-size="10" lengthAdjust="spacingAndGlyphs" textLength="32" x="333" y="424.251">name</text><text fill="#000000" font-family="sans-serif" font-size="10" lengthAdjust="spacingAndGlyphs" textLength="90" x="333" y="435.8916">octave_shift (int)</text><text fill="#000000" font-family="sans-serif" font-size="10" lengthAdjust="spacingAndGlyphs" textLength="58" x="333" y="447.5322">rate (float)</text><text fill="#000000" font-family="sans-serif" font-size="10" lengthAdjust="spacingAndGlyphs" textLength="69" x="333" y="459.1729">tempo_shifts</text><text fill="#000000" font-family="sans-serif" font-size="10" lengthAdjust="spacingAndGlyphs" textLength="24" x="333" y="470.8135">slots</text><rect fill="#FEFECE" filter="url(#fojm9aue79gpb)" height="60.8906" style="stroke: #A80036; stroke-width: 1.5;" width="81" x="210.5" y="404.5"/><text fill="#000000" font-family="sans-serif" font-size="12" lengthAdjust="spacingAndGlyphs" textLength="61" x="220.5" y="417.6387">Transform</text><line style="stroke: #A80036; stroke-width: 1.5;" x1="211.5" x2="290.5" y1="422.4688" y2="422.4688"/><text fill="#000000" font-family="sans-serif" font-size="10" lengthAdjust="spacingAndGlyphs" textLength="32" x="216.5" y="435.751">name</text><text fill="#000000" font-family="sans-serif" font-size="10" lengthAdjust="spacingAndGlyphs" textLength="69" x="216.5" y="447.3916">divide (float)</text><text fill="#000000" font-family="sans-serif" font-size="10" lengthAdjust="spacingAndGlyphs" textLength="24" x="216.5" y="459.0322">slots</text><rect fill="#FEFECE" filter="url(#fojm9aue79gpb)" height="72.5313" style="stroke: #A80036; stroke-width: 1.5;" width="110" x="427" y="537"/><text fill="#000000" font-family="sans-serif" font-size="12" lengthAdjust="spacingAndGlyphs" textLength="33" x="465.5" y="550.1387">Scale</text><line style="stroke: #A80036; stroke-width: 1.5;" x1="428" x2="536" y1="554.9688" y2="554.9688"/><text fill="#000000" font-family="sans-serif" font-size="10" lengthAdjust="spacingAndGlyphs" textLength="32" x="433" y="568.251">name</text><text fill="#000000" font-family="sans-serif" font-size="10" lengthAdjust="spacingAndGlyphs" textLength="98" x="433" y="579.8916">root (note/octave)</text><text fill="#000000" font-family="sans-serif" font-size="10" lengthAdjust="spacingAndGlyphs" textLength="98" x="433" y="591.5322">scale_type (string)</text><text fill="#000000" font-family="sans-serif" font-size="10" lengthAdjust="spacingAndGlyphs" textLength="94" x="433" y="603.1729">slots (user scales)</text><rect fill="#FEFECE" filter="url(#fojm9aue79gpb)" height="95.8125" style="stroke: #A80036; stroke-width: 1.5;" width="161" x="196.5" y="237"/><text fill="#000000" font-family="sans-serif" font-size="12" lengthAdjust="spacingAndGlyphs" textLength="22" x="266" y="250.1387">Clip</text><line style="stroke: #A80036; stroke-width: 1.5;" x1="197.5" x2="356.5" y1="254.9688" y2="254.9688"/><text fill="#000000" font-family="sans-serif" font-size="10" lengthAdjust="spacingAndGlyphs" textLength="32" x="202.5" y="268.251">name</text><text fill="#000000" font-family="sans-serif" font-size="10" lengthAdjust="spacingAndGlyphs" textLength="58" x="202.5" y="279.8916">rate (float)</text><text fill="#000000" font-family="sans-serif" font-size="10" lengthAdjust="spacingAndGlyphs" textLength="78" x="202.5" y="291.5322">repeat (count)</text><text fill="#000000" font-family="sans-serif" font-size="10" lengthAdjust="spacingAndGlyphs" textLength="91" x="202.5" y="303.1729">next_clip (name)</text><text fill="#000000" font-family="sans-serif" font-size="10" lengthAdjust="spacingAndGlyphs" textLength="131" x="202.5" y="314.8135">tempo_shifts (list of ints)</text><text fill="#000000" font-family="sans-serif" font-size="10" lengthAdjust="spacingAndGlyphs" textLength="149" x="202.5" y="326.4541">auto_scene_advance (bool)</text><!--MD5=[4bb10e2dab6b4dbea7a79d9030e5d1f4]
link Song to Instrument--><path codeLine="11" d="M298.976,55.029 C272.682,70.26 238.99,91.934 213,116 C175.749,150.494 141.159,196.644 117.193,231.845 " fill="none" id="Song-&gt;Instrument" style="stroke: #A80036; stroke-width: 1.0;"/><polygon fill="#A80036" points="109.795,242.861,116.4607,240.11,116.4851,232.899,109.8194,235.6499,109.795,242.861" style="stroke: #A80036; stroke-width: 1.0;"/><!--MD5=[4ba278c2b74755ec3361bdadd0af112a]
reverse link Instrument to Device--><path codeLine="12" d="M84,340.293 C84,366.833 84,397.021 84,415.792 " fill="none" id="Instrument&lt;-Device" style="stroke: #A80036; stroke-width: 1.0;"/><polygon fill="#A80036" points="84,327.226,80,333.226,84,339.226,88,333.226,84,327.226" style="stroke: #A80036; stroke-width: 1.0;"/><!--MD5=[28d4f9263aaeac1b2f99d8e2962c5f47]
reverse link Track to Instrument--><path codeLine="13" d="M228.546,179.05 C202.418,198.021 168.873,222.377 140.677,242.849 " fill="none" id="Track&lt;-Instrument" style="stroke: #A80036; stroke-width: 1.0;"/><polygon fill="#A80036" points="239.253,171.276,232.0477,171.565,229.5432,178.3272,236.7485,178.0382,239.253,171.276" style="stroke: #A80036; stroke-width: 1.0;"/><!--MD5=[1421ccda4e98e1f14736e9d382e748e6]
link Scene to Pattern--><path codeLine="14" d="M407.593,177.081 C402.097,224.799 391.191,319.479 384.264,379.618 " fill="none" id="Scene-&gt;Pattern" style="stroke: #A80036; stroke-width: 1.0;"/><polygon fill="#A80036" points="382.765,392.634,387.4257,387.1315,384.1391,380.7129,379.4784,386.2154,382.765,392.634" style="stroke: #A80036; stroke-width: 1.0;"/><!--MD5=[66b6a3cdbb3be5e03c433da1918ed0b0]
link Scene to Scale--><path codeLine="15" d="M415.936,177.048 C428.625,253.004 462.345,454.847 476.067,536.9833 " fill="none" id="Scene-Scale" style="stroke: #A80036; stroke-width: 1.0;"/><!--MD5=[c6a75b2508ce67732f89eb79dc9a9952]
link Song to Scale--><path codeLine="16" d="M383.161,43.277 C418.64,54.82 467.139,76.983 490,116 C570.343,253.124 519.929,455.476 494.294,536.7703 " fill="none" id="Song-Scale" style="stroke: #A80036; stroke-width: 1.0;"/><!--MD5=[d92547e51822182208d6726d8844e04a]
link Song to Track--><path codeLine="17" d="M326.535,56.189 C316.921,71.933 304.13,92.881 293.352,110.532 " fill="none" id="Song-&gt;Track" style="stroke: #A80036; stroke-width: 1.0;"/><polygon fill="#A80036" points="286.446,121.843,292.9868,118.807,292.7,111.6016,286.1592,114.6376,286.446,121.843" style="stroke: #A80036; stroke-width: 1.0;"/><!--MD5=[b0b698b7702ae7ee095a347c5b1b7cc1]
link Song to Scene--><path codeLine="18" d="M355.674,56.189 C364.32,70.145 375.498,88.19 385.541,104.402 " fill="none" id="Song-&gt;Scene" style="stroke: #A80036; stroke-width: 1.0;"/><polygon fill="#A80036" points="392.601,115.799,392.8419,108.5919,386.2818,105.5976,386.041,112.8047,392.601,115.799" style="stroke: #A80036; stroke-width: 1.0;"/><!--MD5=[85dab6e6a956191629d3f212750b32ba]
link Pattern to Scale--><path codeLine="19" d="M409.486,477.325 C421.241,492.754 434.662,510.3686 446.735,526.2153 " fill="none" id="Pattern-&gt;Scale" style="stroke: #A80036; stroke-width: 1.0;"/><polygon fill="#A80036" points="454.842,536.8549,454.3872,529.6582,447.5691,527.31,448.0239,534.5067,454.842,536.8549" style="stroke: #A80036; stroke-width: 1.0;"/><!--MD5=[d05547012b09a5b94318a282cb69331b]
link Clip to Pattern--><path codeLine="20" d="M309.235,333.235 C319.734,348.62 331.45,365.788 342.194,381.532 " fill="none" id="Clip-&gt;Pattern" style="stroke: #A80036; stroke-width: 1.0;"/><polygon fill="#A80036" points="349.814,392.698,349.7364,385.4873,343.0506,382.7856,343.1281,389.9963,349.814,392.698" style="stroke: #A80036; stroke-width: 1.0;"/><!--MD5=[836afbb116a01540cd2a93453e3b4424]
link Clip to Transform--><path codeLine="21" d="M268.702,333.235 C265.417,351.932 261.67,373.264 258.471,391.471 " fill="none" id="Clip-&gt;Transform" style="stroke: #A80036; stroke-width: 1.0;"/><polygon fill="#A80036" points="256.201,404.392,261.1785,399.1743,258.2766,392.5729,253.2991,397.7906,256.201,404.392" style="stroke: #A80036; stroke-width: 1.0;"/><!--MD5=[456fb5f42bbcc0f652ba68b1770dede6]
link Scene to Clip--><path codeLine="22" d="M381.924,177.118 C367.441,191.872 349.433,210.216 332.446,227.52 " fill="none" id="Scene-&gt;Clip" style="stroke: #A80036; stroke-width: 1.0;"/><polygon fill="#A80036" points="323.143,236.996,330.2007,235.5165,331.5495,228.4326,324.4918,229.9122,323.143,236.996" style="stroke: #A80036; stroke-width: 1.0;"/><!--MD5=[ba02bcb2570a673e261575fc4eee7afa]
link Track to Clip--><path codeLine="23" d="M272.871,171.276 C273.402,185.782 274.108,205.035 274.785,223.518 " fill="none" id="Track-&gt;Clip" style="stroke: #A80036; stroke-width: 1.0;"/><polygon fill="#A80036" points="275.27,236.762,279.0478,230.6196,274.8309,224.77,271.0531,230.9124,275.27,236.762" style="stroke: #A80036; stroke-width: 1.0;"/><!--MD5=[3997ff4f520b76476143a7c0a7735d65]
@startuml
object Song
object Instrument
object Device
object Track
object Scene
object Pattern
object Transform
object Scale
object Clip

Song - -* Instrument
Instrument *- - Device
Track *- - Instrument
Scene - -* Pattern
Scene - - Scale
Song - - Scale
Song - -* Track
Song - -* Scene
Pattern - -* Scale
Clip - -* Pattern
Clip - -* Transform
Scene - -* Clip
Track - -* Clip

Song : name
Song : tempo (bpm)
Clip : name
Clip : rate (float)
Clip : repeat (count)
Clip : next_clip (name)
Clip : tempo_shifts (list of ints)
Clip : auto_scene_advance (bool)
Device : name
Instrument : name
Instrument : channel (int)
Instrument : min/base/max octave (int)
Instrument : default velocity (int)
Instrument : muted (bool)
Track : name
Track : muted (bool)
Scale : name
Scale : root (note/octave)
Scale : scale_type (string)
Scale : slots (user scales)
Scene : name
Scene : auto_advance (bool)
Scene : rate (float)
Transform : name
Transform : divide (float)
Transform : slots
Pattern : name
Pattern : octave_shift (int)
Pattern : rate (float)
Pattern : tempo_shifts
Pattern : slots
@enduml

PlantUML version 1.2020.16beta7(Unknown compile time)
(GPL source distribution)
Java Runtime: Java(TM) SE Runtime Environment
JVM: Java HotSpot(TM) 64-Bit Server VM
Default Encoding: UTF-8
Language: en
Country: US
--></g></svg>